# xmcd CD database file
#
# Track frame offsets:
#	150
#	12750
#	26581
#	41699
#	52779
#	66320
#	89657
#	106411
#	116907
#	132244
#	142127
#	155662
#
# Disc length: 2274 seconds
#
# Revision: 0
# Processed by: cddbd v1.5.2PL0 Copyright (c) Steve Scherf et al.
# Submitted via: CDex 1.51
#
DISCID=aa08e00c
DTITLE=Jonesy - Something of a Privilege
DYEAR=2006
DGENRE=Australian Country
TTITLE0=Black Snow Town
TTITLE1=Something of a Privilege
TTITLE2=Down The Bucketts Road
TTITLE3=Koori Blues
TTITLE4=Southerly Change
TTITLE5=Woman of the Plains
TTITLE6=Against the Mighty Darling
TTITLE7=Cecil's Pride
TTITLE8=The Ghosts of Memory Lane
TTITLE9=Vegemite on Toast
TTITLE10=In the Outback
TTITLE11=We Remain (with Ian Quinn )
EXTD=YEAR: 2006
EXTT0=
EXTT1=
EXTT2=
EXTT3=
EXTT4=
EXTT5=
EXTT6=
EXTT7=
EXTT8=
EXTT9=
EXTT10=
EXTT11=
PLAYORDER=
